<?xml version="1.0" encoding="UTF-8"?>
<svg id="Layer_2" data-name="Layer 2" xmlns="http://www.w3.org/2000/svg" viewBox="0 0 109 110.5">
  <defs>
    <style>
      .cls-1 {
        fill: #0e161a;
      }

      .cls-2 {
        fill: #f8f8ff;
      }
    </style>
  </defs>
  <g id="Ebene_1" data-name="Ebene 1">
    <g>
      <path class="cls-1" d="m108.06,57.66c.04-.6.07-1.2.09-1.8,0,0,0,0,0-.01.05-.64.1-1.21.16-1.74.01-.53.03-1.02.04-1.51.02-.97.04-1.93-.02-3.13.04-.08.07-.19.1-.32.02-.09.06-.39-.06-.74-.03-.09-.08-.19-.15-.31-.13-.09-.27-.22-.41-.39-.32-2.7-.84-5.34-1.55-7.91-.22-1.18-.86-3.1-1.51-4.93-11.39-1.68-23.78-4.07-23.78-4.07.15-2.5,9.48-3.86,19.38-4.6-.76-1.23-1.57-2.43-2.42-3.59.04-.02.09-.03.11-.08l-.67-.66c-.09-.12-.19-.24-.28-.35-.08-.1-.15-.19-.23-.29-.47-.6-.95-1.19-1.44-1.76,0,0,0,0,0,0,0,0,0,0,0,0-6.51-7.6-15.13-13.34-24.94-16.31-1.81-.55-7.86-1.72-15.41-2.27-1.19-.09-2.18-.14-2.86-.17-.16-.08-.41-.2-.71-.35-.44-.23-.47-.27-.6-.31-.45-.14-.76.09-1.26.21-.44.11-.58.02-1.55-.06-1.69-.14-2.54-.21-3.39.17-.41.18-.46.31-1,.52-.65.25-1.23.33-1.62.36l.13-.12c-1.87.55-3.26.74-4.64,1.2-.7.2-1.42.4-2.23.63-.81.23-1.72.46-2.72.93.23.19.46.38.69.57-.72-.1-2.22.62-3.68,1.31-1.44.71-2.75,1.57-3.36,1.38-.18.18-.35.31-.45.39-.37.28-.53.3-.65.52-.12.23-.03.37-.14.46-.1.08-.32.08-.84-.24-.34.08-1.25.36-1.74,1.2-.09.15-.15.3-.2.44-2.87,2.24-6.18,5.17-8.37,8.12,8.63.39,16.06,1.06,16.2,2.17,0,0-9.15.88-18.95,1.66-.09.12-.23.31-.4.53-.31.39-.35.42-.46.58-.24.35-.18.43-.45,1.01-.23.48-.35.73-.61.91-.29.21-.62.24-.81.24-.68,1.1-.84,1.72-.85,2.1,0,.05,0,.22-.02.47,0,.21-.04.53-.13,1.06-.16.03-.36.11-.48.29-.15.22-.02.4-.06.83,0,.1-.07.68-.48,1.06-.13.13-.43.35-.57.25-.1-.07-.1-.3,0-.56-.52.68-.87,1.33-1.14,1.92-.24.61-.34,1.18-.46,1.68-.23,1.01-.41,1.77-1.14,2.34.02.12.07.29.19.41.3.29.75.08.86.24.15.23-.71.77-1.37,1.9-.38.64-.6,1.31-.87,2.13-.11.34-.19.62-.28.93-.26.89-.38,1.33-.41,1.65-.07.82.21.86.15,1.74-.05.9-.39,1.54-.47,1.53-.05,0,.01-.27-.17-.53-.03-.04-.27-.26-.23-.19.37.6.24,1.25.07,2-.07.52-.15,1.09-.09,1.7,12.48.44,29.43,1.57,29.64,4.51,0,0-17.39,2.91-29.89,4.27-.06.76-.06,1.66-.17,2.12.5,2.72.34-.47.76.66-.34.99.4,1.3.73,2.45l-.39.08c.21.39.45.99.49,1.73.02.24,0,.46-.01.66l.5,1.38-.52-.18c.76,1.45.69,1.98,1.11,3.49.04-.1.08-.15.12-.15.13-.01.3.4.51,1.24-.15-.04-.39-.33-.54-.37.09,1.05.82,2.44,1.07,3.1-.08-.26-.17-.58-.18-.76.08.14.21.36.37.62.21.34.36.57.38.61.37.58.49,1.56.66,2.3.37,1.67,1.15,2.89,1.04,2.95-.02,0-.05-.02-.07-.03.64,1.4,2.44,2.89,3.34,4.67.11.05.29.18.58.49.25.37.48.73.71,1.1,11.6.32,25.33-3.09,25.52-1.62,0,0-20.59,7.53-20.19,8.15.86.3,1.45.69,1.84,1,.6.47.77.79,1.92,1.85.26.24.53.49.87.77.56.46,1.3,1.01,2.25,1.54l.62.76c-.21-.17-.29-.14-.49-.31,1.17,1.56,1.57.13,3.48,1.5.65.5,1.06.94.51.76l1.71.71c.31.2.3.3.11.26.73.37.71.12,1.45.47l1.08-.76c.25,0,.63.19,1.01.25.2-.51.36.27,1.05.23.49-.03.9.13,1.3.32.74.21,1.9-.15,2.63.15,1.15.48,2.16.81,3.29,1.33,2.07.95,4.43,1.23,6.7,1.21,0,0,.49.02.48.02.37,0,.92-1.71,1.21-1.5,3.92-.09,6.9,1.31,10.77.53,1.73-.35,3.27-.34,5.01-.65.91-.16,1.2-.13,2.1-.24.96-.12,1.07.26,1.35-.51.24-.67,1.79-.02,2.35-.06.07-.03.13-.06.15-.07.16-.09.31-.18.47-.28.31-.18.62-.37.94-.52.76-.35.9-.31,1.77-.21.32.03.45.04.75.04.13.18,1.19.89,1.24.86.06-.03.04-.02.1-.05.05-.03.1-.05.15-.08.11-.01.27-.03.47-.05.32-.02.52,0,.82,0,.2,0,.48,0,.84-.03.2-.01.45-.05.73-.14.55-.18.93-.49,1.14-.69.01.06.04.1.07.13.15.11.57-.01,1.77-1.1,1.08-.61,1.64-.87,1.71-.77.01.02,0,.05-.03.1.45-.23,1.01-.54,1.62-.94,1.02-.67,1.71-1.31,2-1.56,1.24-1.07,2.23-2.02,2.12-2.43.08.06.31.88.27,1.07.42-1.05.79-2.11,1.15-3.15.37-.33.72-.68,1.08-1.03.58.35,1.3.71.41,1.84.48-.36,1.16-.73,1.86-1.81-.33.25-1.31.12-.97-.32,1.5-.64.96-.52,2.65-1.52-.51.36-.76-.78-.1-1.45,0,.2.77.55.61.88.3-.75.57-1.51.78-2.31-.08.46.62.45,1.12.19-.3.09,1.26-1.66,1.57-2.23l-.79.69c1.77-2.08.44-2.92,1.86-5.11,0,.37.61,1.3,1.42.19-.06-.4-.15-1.24-.26-2.31,0-.06,0-.13-.02-.2.07-.07.22-.2.42-.2.33.01.52.44.6.6.18.41.12.8.07,1,.65-.8.41-.1,1.06-1.49.47-.37-.02.93-.2,1.35l1.71-3.16c-.02-.4-.01-.86.06-1.39.09-.69.26-1.28.42-1.73-.03-.18.07-.7.21-1.23-9.12-1.49-17.22-3.04-17.22-3.04.15-2.37,8.55-3.72,17.87-4.48.13-.63.25-1.26.36-1.89.47-.01.78,1.66,1.24,1.06-.14-.06-.25-.61-.28-.84.22-.57.43.33.56-.99-.53-.3.45-2.63-.38-.68,0-1.29.39-1.32.45-2.82-.25.28-.65-.37-.94-1.2Z"/>
      <path class="cls-2" d="m103.08,78.61c-1.5-1.82-3.27-2.64-4.17-2.98-8.85-2.37-17.7-4.74-26.55-7.1-1.15-1.46-2.63-2.59-3.73-4.09.13-.85.13-1.84.24-2.71.63-.39,1.55-.5,1.63-1.45.9.5,2.24-.21,3.05-.64.05-.02.1-.04.15-.07.15,1.04,1.36.28,1.56-.18,1.56.2,3.16-.1,4.15-.78.49.98,1.52.01,1.75-.54,2.64.13,2.72-1.73,3.79-3.37.97-1.48,2.36-2.72,1.69-5,.69-.07,1.7.17,2.11-.18-1.02-2.47-2.59-4.4-3.55-6.92-.4-.09-.66-.3-1.2-.24-.28-.7-.77-1.19-1.08-1.87.11-.11.36-.08.3-.36-.52-1.3-.89-2.77-1.32-4.15-.47-.15-.97-.02-1.63-.06-.42-1.06-.89-2.08-1.32-3.13-.4.01-.66-.11-1.08-.06-.57-.62-.61-1.83-1.39-2.17-.84-.37-1.98.27-2.83.06-.57-.14-.62-.76-1.14-.9-1.45-.78-2.89-1.57-4.34-2.35-.09-.24-.23-.44-.39-.6,3.9-.44,7.85-.86,11.83-1.27,2.91-.29,5.8-.58,8.67-.84-.43-.34-1.07-.83-1.87-1.38-1-.71-1.51-1.15-2.05-1.32-1-.32-2.82-.24-4.09-.18-3.57.17-7.03.48-10.4.91.19-2.47-.41-5.19-1.61-7.28-.03-.06-.08-.15-.12-.24-.16-.33-.27-.55-.43-.65h0c-.3-.21-.69-.24-1.07-.27-.14-.01-.27-.02-.39-.04-.1-.1-.18-.28-.27-.46-.15-.31-.31-.66-.64-.78-.27-.1-.68-.06-1.05-.02-.1,0-.19.02-.26.02-.69.04-1.5.19-2.17.34h0s-.49-.08-.49-.08c-.18-.03-.36-.02-.53-.01,2.35-3.59,5.44-5.24,9.69-5.18h.54s-.35-.41-.35-.41c-.86-1.03-2.59-1.71-4.62-1.82-1.9-.11-3.66.31-4.76,1.12-.72-.79-2.29-1.48-3.67-.86l-.44.2.41.24c.9.53,1.39,1.99,1.18,3.36-1.31-1.67-3.18-3.55-6.12-4.37-.13-.36-.33-.68-.62-.98l-.15-.16-.17.13c-.35.25-.54.64-.7,1.02-2.84.76-4.64,2.5-6.12,4.35-.19-1.4.3-2.83,1.19-3.36l.41-.24-.43-.2c-1.37-.62-2.94.07-3.69.86-1.15-.85-3.05-1.27-5.03-1.1-1.9.16-3.52.84-4.33,1.8l-.35.41h.54c4.22-.07,7.39,1.62,9.67,5.17-.17-.01-.34-.02-.52.01l-.44.07.02.02c-.32-.08-.66-.15-1.05-.21-.06-.01-.14-.02-.22-.04-.63-.12-1.7-.31-2.27-.1-.32.12-.48.46-.62.77-.09.19-.19.43-.29.46-.14.05-.33.07-.53.08-.31.02-.66.05-.93.24-.16.11-.28.35-.44.67-.04.08-.08.16-.1.2-1.22,2.13-1.8,4.8-1.59,7.33l.03.35.32-.15c.16-.07.33-.15.5-.23.93-.44,1.98-.94,3.24-1.11,1.54-.21,2.84,0,3.59.58-1.59.55-2.69,1.38-3.44,2.58-.03.05-.09.13-.14.21-.27.38-.47.69-.47.97,0,.17.13.27.19.32,0,0,.02.01.03.02,0,.1-.08.32-.12.47-.06.19-.12.38-.14.53-.07.39-.14.8-.2,1.18-.01.06-.02.14-.04.21-.1.56-.2,1.13-.2,1.62-1.91.58-3.8,1.17-5.68,1.75-.42-.51-.97-1.63-1.75-1.75-1.25-.19-2.75.79-2.83,1.73-.26-.18-.52-.36-.78-.52-.8.11-.7-.46-1.32-.54-1.03-.14-3.76,1.29-4.21,2.11-.45.82-.45,2.08.13,2.72-1.04.29-1.96.65-3.02,1.13-1.89.86-3.69,1.75-5.6,2.77-.81.43-2.41,1.06-2.53,1.69-.19,1.03,1.18,3.11,1.93,3.19.55.06,1.47-.57,2.05-.84,2.67-1.25,5.51-2.26,8.24-3.31.03.22.33.46.37.72-.18.36-.98.69-1.08,1.2-.17.8.69,2.61,1.08,3.61.51,1.3.85,2.15,1.45,3.31,1.2,2.33,2.23,4.47,3.73,5.78.78.68,2.1.63,2.77.06.88.48,1.73,1.06,3.01.66,1.72-.53,3.49-2.58,5.06-2.89-.54,2.88.02,7.08-.24,9.63-2.13-.18-4.89-.75-7.17-.96-.83-.08-1.78-.03-2.53-.18-.25-.05-.44-.25-.72-.3-.65-.11-1.6-.17-2.05-.06-1.04.27-1.23,2.71-.3,3.37,3.65.5,7.75.71,11.44,1.32-.15.54.27.85.36,1.38.29,1.77-.43,4.13.42,5.54-2.4,2.88-3.61,6.55-4.76,10.6-1.06,3.77-2.09,7.92-2.38,12.37-.02.2-.04.41-.06.61-.71.94.28,1.98,1.11,2.25-.24,1.56-.52,2.97-.91,4.45.32.29.56.5.76.52.17.02.28.1.57.14.21.03.38.08.49.11.34-.23.65-.35.87-.41.28-.08.45-.13.68-.1.36.05.44.23.84.37.17.06.42.11.75.09.61.03,1.49.14,2.49.51,1.19.44,1.72,1.07,2.45,1.4,1.66.75,3.75,1.3,5.57,1.33,1.83.03,3.55.52,5.39.5.1,0,.55-.05,1.16-.07.76-.03.9,0,1.61-.01,1.55-.02,2.03-.18,3.15-.02.21.03.39.07.5.09.17-.03.35-.03.54,0,1.63.26,3.23-.45,4.8-.92,2.71-.81,4.09-1.12,4.26-1.11.47.03,1.79.16,2.14-.46.12-.2.1-.43.32-.61.15-.12.32-.15.97-.15.77,0,.8.06,1.14.03.53-.04.62-.19,1.11-.27.32-.05.8-.08,1.42.1.56-.31,1.12-.63,1.68-.94-.2-1.1-.41-2.21-.63-3.32-.35-1.78-.71-3.53-1.08-5.24,1.08.12,1.71-1.04.78-1.57-1.25-7.41-3.86-13.75-6.02-20.05.28-.12.31-.49.48-.72.32.04.57.15.9.18,5.4,5.85,10.49,11.86,15.59,18.18.13.16.26.33.39.49.42.54.85,1.08,1.27,1.63,1.25,1.59,7.14,10.66,10.38,15.41.35.51.96,1.4,1.75,2.53.18-.4.43-.97.66-1.69.32-.97.47-1.73.48-1.87.23-2.24-1.17-4.31-2.11-5.96-.92-1.63-1.87-2.93-2.77-4.28-5.65-8.44-12.34-16.61-18.97-23.24,9.56,2.48,19.25,5.15,27.82,8.43-.26-.82-.78-2.05-1.79-3.29Z"/>
    </g>
  </g>
</svg>